# xmcd
#
# Track frame offsets:
# 150
# 17086
# 40209
# 55209
# 66756
# 84472
# 93682
# 104787
# 114903
# 123626
# 139810
# 151713
# 162576
# 176156
# 192116
# 206425
# 220218
#
# Disc length: 3199 seconds
#
#
# Revision: 0
# Processed by: cddbd v1.5.1PL0 Copyright (c) Steve Scherf et al.
# Submitted via: FreeRIP 2.90 
#
DISCID=f40c7d11
DTITLE=Rudi Knabl - Weihnacht mit Rudi Knabl - Zithersterne
DYEAR=1900
DGENRE=Folk
TTITLE0=Stille Nacht
TTITLE1=Josef, mein lieber osef mein/Ihr Kinderlein kommet
TTITLE2=Es wird scho glei dumper
TTITLE3=Leise rieselt der Schnee
TTITLE4=Dürnberger Hirtenlied/Andachtsjodler
TTITLE5=Lippei steh'auf vom Schlaf
TTITLE6=Morgen kommt der Weihnachtsmann
TTITLE7=Nach der Mett'n
TTITLE8=Es hat sich halt eröffnet das himmlische Tor
TTITLE9=Still, Still, Still, weils Kindlein schlafen will
TTITLE10=Abendstimmung im Gebirg
TTITLE11=Weihnachtsglöckchen
TTITLE12=Kindlein wiegen
TTITLE13=Inmitten der Nacht
TTITLE14=Festliche Stunden
TTITLE15=Kommet ihr Hirten
TTITLE16=Der Haussegen (Ein Kind ist uns geboren
EXTD=
EXTT0=
EXTT1=
EXTT2=
EXTT3=
EXTT4=
EXTT5=
EXTT6=
EXTT7=
EXTT8=
EXTT9=
EXTT10=
EXTT11=
EXTT12=
EXTT13=
EXTT14=
EXTT15=
EXTT16=
PLAYORDER=
